<mxfile host="app.diagrams.net" modified="2024-03-06T18:57:10.687Z" agent="Mozilla/5.0 (X11; Linux x86_64) AppleWebKit/537.36 (KHTML, like Gecko) Chrome/121.0.0.0 Safari/537.36" version="24.0.2" etag="Mq-_w46XY14TEHYn3egj" type="github">
  <diagram name="PÃ¡gina-1" id="OmgpUUOgJaZAV_1ukw9X">
    <mxGraphModel>
      <root>
        <mxCell id="0" />
        <mxCell id="1" parent="0" />
      </root>
    </mxGraphModel>
  </diagram>
</mxfile>
